<?xml version="1.0" encoding="utf-8"?>
<svg width="800px" height="800px" viewBox="0 0 32 32" xmlns="http://www.w3.org/2000/svg">
  <defs>
    <mask id="holes-mask">
      <rect x="0" y="0" width="32" height="32" fill="white"/>
      
      <g fill="black">
        <rect x="7" y="4" width="18" height="6" rx="1" ry="1"/>
        
        <circle cx="10" cy="14" r="2"/>
        <circle cx="16" cy="14" r="2"/>
        <circle cx="22" cy="14" r="2"/>
        <circle cx="10" cy="20" r="2"/>
        <circle cx="16" cy="20" r="2"/>
        <circle cx="22" cy="20" r="2"/>
        <circle cx="10" cy="26" r="2"/>
        <circle cx="16" cy="26" r="2"/>
        <circle cx="22" cy="26" r="2"/>
      </g>
    </mask>
  </defs>

  <path d="m24.5 0c2.209139 0 4 1.790861 4 4v24c0 2.209139-1.790861 4-4 4h-17c-2.209139 0-4-1.790861-4-4v-24c0-2.209139 1.790861-4 4-4z" 
        fill="#fff" 
        mask="url(#holes-mask)"/>
</svg>