<?xml version="1.0" standalone="no"?>
<!DOCTYPE svg PUBLIC "-//W3C//DTD SVG 20010904//EN"
 "http://www.w3.org/TR/2001/REC-SVG-20010904/DTD/svg10.dtd">
<svg version="1.0" xmlns="http://www.w3.org/2000/svg"
 width="512.000000pt" height="512.000000pt" viewBox="0 0 512.000000 512.000000"
 preserveAspectRatio="xMidYMid meet">

<g transform="translate(0.000000,512.000000) scale(0.100000,-0.100000)"
fill="#fff" stroke="none">
<path d="M2040 3666 c-69 -16 -114 -36 -166 -74 -68 -50 -730 -755 -763 -814
-17 -29 -38 -87 -47 -128 -14 -63 -15 -86 -5 -150 19 -128 48 -171 267 -405
405 -432 538 -566 581 -592 25 -15 75 -35 112 -45 61 -17 120 -18 851 -18 852
0 852 0 962 56 110 56 203 184 228 313 6 33 10 317 10 750 0 751 -2 776 -53
878 -37 72 -108 145 -175 181 -117 62 -108 62 -967 61 -592 -1 -793 -4 -835
-13z m1660 -206 c52 -14 109 -67 136 -124 l24 -51 0 -725 0 -725 -24 -51 c-27
-58 -85 -110 -138 -124 -23 -7 -329 -9 -835 -8 -759 3 -800 4 -836 22 -56 28
-723 735 -749 794 -24 54 -21 148 6 200 9 18 173 197 363 399 251 264 359 371
388 384 38 18 86 19 835 19 486 0 809 -4 830 -10z"/>
<path d="M2440 3057 c-34 -17 -63 -77 -54 -114 4 -18 68 -90 182 -205 l176
-178 -176 -177 c-193 -195 -206 -216 -171 -276 24 -41 59 -59 103 -53 28 5 64
35 212 183 l178 178 177 -177 c111 -110 188 -179 206 -183 67 -17 127 29 127
96 0 42 -3 46 -182 226 l-182 183 182 183 c161 162 182 187 182 216 0 82 -75
135 -143 100 -12 -6 -100 -88 -194 -182 l-173 -172 -183 183 c-195 194 -205
200 -267 169z"/>
</g>
</svg>
