<?xml version="1.0" standalone="no"?>
<!DOCTYPE svg PUBLIC "-//W3C//DTD SVG 20010904//EN"
 "http://www.w3.org/TR/2001/REC-SVG-20010904/DTD/svg10.dtd">
<svg version="1.0" xmlns="http://www.w3.org/2000/svg"
 width="512.000000pt" height="512.000000pt" viewBox="0 0 512.000000 512.000000"
 preserveAspectRatio="xMidYMid meet">

<g transform="translate(0.000000,512.000000) scale(0.100000,-0.100000)"
fill="#fff" stroke="none">
<path d="M1292 4624 c-18 -10 -45 -33 -60 -52 l-27 -35 -3 -249 -3 -248 -235
0 c-262 0 -283 -4 -330 -65 -52 -68 -37 -169 34 -223 l35 -27 249 -3 248 -3 0
-235 c0 -264 4 -283 68 -332 46 -35 135 -38 178 -6 69 51 69 50 72 324 l3 249
248 3 248 3 37 29 c90 68 86 190 -8 260 -26 20 -43 21 -276 24 l-249 3 -3 249
c-3 233 -4 250 -24 276 -50 67 -135 92 -202 58z"/>
<path d="M3095 4026 c-67 -29 -105 -106 -91 -181 9 -47 59 -102 104 -115 25
-8 244 -10 673 -8 l636 3 35 27 c94 71 82 214 -22 269 -33 18 -70 19 -670 19
-505 -1 -641 -3 -665 -14z"/>
<path d="M3691 2309 c-81 -25 -160 -96 -200 -179 -37 -79 -37 -191 0 -271 99
-210 368 -260 529 -99 66 66 95 138 95 235 0 65 -5 90 -26 135 -31 65 -96 132
-158 162 -52 25 -183 34 -240 17z"/>
<path d="M870 2048 c-79 -40 -111 -123 -79 -205 6 -15 85 -103 177 -196 l167
-167 -167 -168 c-91 -92 -171 -177 -177 -189 -18 -35 -13 -102 10 -143 38 -67
123 -97 196 -69 15 6 103 85 196 177 l167 167 163 -162 c89 -88 176 -168 194
-177 72 -36 167 -6 203 64 22 43 26 103 10 146 -6 15 -85 102 -175 194 l-165
166 160 159 c88 88 167 174 175 191 35 73 9 164 -57 204 -96 58 -138 38 -343
-169 l-159 -161 -167 165 c-205 203 -236 219 -329 173z"/>
<path d="M3693 1286 c-129 -42 -215 -149 -229 -285 -19 -175 119 -342 295
-358 76 -7 139 9 207 52 138 88 189 261 123 414 -26 60 -101 134 -167 163 -59
26 -171 33 -229 14z"/>
</g>
</svg>
