<?xml version="1.0" standalone="no"?>
<!DOCTYPE svg PUBLIC "-//W3C//DTD SVG 20010904//EN"
 "http://www.w3.org/TR/2001/REC-SVG-20010904/DTD/svg10.dtd">
<svg version="1.0" xmlns="http://www.w3.org/2000/svg"
 width="512.000000pt" height="512.000000pt" viewBox="0 0 512.000000 512.000000"
 preserveAspectRatio="xMidYMid meet">

<g transform="translate(0.000000,512.000000) scale(0.100000,-0.100000)"
fill="#fff" stroke="none">
<path d="M1055 4466 c-37 -17 -70 -52 -84 -89 -7 -18 -11 -150 -11 -362 l0
-334 -349 -3 c-335 -3 -351 -4 -377 -24 -53 -39 -69 -71 -69 -134 0 -63 16
-95 69 -134 26 -20 42 -21 376 -24 l349 -3 3 -349 c3 -334 4 -350 24 -376 39
-52 71 -69 133 -69 48 0 64 5 95 29 65 49 66 57 66 430 l0 335 348 3 349 3 37
29 c88 66 88 186 0 252 l-37 29 -349 3 -348 3 0 335 c0 372 -1 381 -64 429
-44 33 -115 43 -161 21z"/>
<path d="M4095 4305 c-17 -8 -798 -784 -1737 -1723 -1525 -1526 -1707 -1711
-1713 -1745 -11 -60 3 -107 44 -148 41 -41 88 -55 148 -44 34 6 220 188 1747
1713 1009 1009 1714 1720 1722 1739 8 18 14 45 14 60 -1 43 -34 108 -70 133
-41 29 -114 36 -155 15z"/>
<path d="M3135 1426 c-67 -29 -105 -106 -91 -181 9 -47 59 -102 104 -115 25
-8 305 -10 873 -8 l836 3 37 29 c88 66 88 186 0 252 l-37 29 -846 2 c-688 2
-852 0 -876 -11z"/>
</g>
</svg>
